<?xml version="1.0" encoding="UTF-8" standalone="no"?>
<!DOCTYPE svg PUBLIC "-//W3C//DTD SVG 1.1//EN"
 "http://www.w3.org/Graphics/SVG/1.1/DTD/svg11.dtd">
<!-- Generated by graphviz version 2.34.0 (20130907.0111)
 -->
<!-- Title: %3 Pages: 1 -->
<svg width="159pt" height="336pt"
 viewBox="0.00 0.00 158.70 336.00" xmlns="http://www.w3.org/2000/svg" xmlns:xlink="http://www.w3.org/1999/xlink">
<g id="graph0" class="graph" transform="scale(1 1) rotate(0) translate(4 332)">
<title>%3</title>
<polygon fill="white" stroke="white" points="-4,4 -4,-332 154.704,-332 154.704,4 -4,4"/>
<!-- A -->
<g id="node1" class="node"><title>A</title>
<polygon fill="lightgray" stroke="black" points="45.2209,-328 22.7209,-328 22.7209,-310 45.2209,-310 45.2209,-328"/>
<text text-anchor="middle" x="33.9709" y="-316.8" font-family="Times New Roman,serif" font-size="9.00">A</text>
</g>
<!-- A XOR B -->
<g id="node3" class="node"><title>A XOR B</title>
<ellipse fill="lightblue" stroke="black" cx="86.9709" cy="-170" rx="37.2152" ry="37.4533"/>
<text text-anchor="middle" x="86.9709" y="-167.8" font-family="Times New Roman,serif" font-size="9.00">A XOR B</text>
</g>
<!-- A&#45;&gt;A XOR B -->
<g id="edge2" class="edge"><title>A&#45;&gt;A XOR B</title>
<path fill="none" stroke="green" stroke-width="0.306101" d="M35.5915,-309.638C38.3957,-295.767 44.6597,-267.229 52.9709,-244 56.6471,-233.725 61.2424,-222.93 65.8545,-212.886"/>
<polygon fill="green" stroke="green" points="69.1664,-214.067 70.2521,-203.528 62.8312,-211.09 69.1664,-214.067"/>
</g>
<!-- 1 -->
<g id="node4" class="node"><title>1</title>
<ellipse fill="white" stroke="black" cx="76.9709" cy="-259" rx="14.2796" ry="14.7"/>
<text text-anchor="middle" x="76.9709" y="-256.8" font-family="Times New Roman,serif" font-size="9.00">1</text>
</g>
<!-- A&#45;&gt;1 -->
<g id="edge5" class="edge"><title>A&#45;&gt;1</title>
<path fill="none" stroke="green" stroke-width="1.27171" d="M39.9498,-309.935C45.7911,-302.056 54.9052,-289.763 62.6284,-279.346"/>
<polygon fill="green" stroke="green" points="65.5424,-281.292 68.6864,-271.174 59.9192,-277.123 65.5424,-281.292"/>
</g>
<!-- 2 -->
<g id="node5" class="node"><title>2</title>
<ellipse fill="white" stroke="black" cx="62.9709" cy="-15" rx="14.2796" ry="14.7"/>
<text text-anchor="middle" x="62.9709" y="-12.8" font-family="Times New Roman,serif" font-size="9.00">2</text>
</g>
<!-- A&#45;&gt;2 -->
<g id="edge4" class="edge"><title>A&#45;&gt;2</title>
<path fill="none" stroke="green" stroke-width="0.182769" d="M30.8121,-309.764C18.8705,-277.294 -21.0552,-155.548 14.9709,-66 20.7119,-51.7298 32.6874,-39.2442 43.2399,-30.319"/>
<polygon fill="green" stroke="green" points="45.5959,-32.9174 51.2514,-23.9583 41.2433,-27.4352 45.5959,-32.9174"/>
</g>
<!-- B -->
<g id="node2" class="node"><title>B</title>
<polygon fill="lightgray" stroke="black" points="136.221,-328 113.721,-328 113.721,-310 136.221,-310 136.221,-328"/>
<text text-anchor="middle" x="124.971" y="-316.8" font-family="Times New Roman,serif" font-size="9.00">B</text>
</g>
<!-- B&#45;&gt;A XOR B -->
<g id="edge13" class="edge"><title>B&#45;&gt;A XOR B</title>
<path fill="none" stroke="green" stroke-width="0.239743" stroke-dasharray="1,5" d="M131.104,-309.704C140.497,-295.928 156.505,-267.523 147.971,-244 142.426,-228.717 132.126,-214.394 121.548,-202.552"/>
<polygon fill="green" stroke="green" points="123.996,-200.046 114.603,-195.143 118.889,-204.833 123.996,-200.046"/>
</g>
<!-- B&#45;&gt;1 -->
<g id="edge1" class="edge"><title>B&#45;&gt;1</title>
<path fill="none" stroke="red" stroke-width="0.741879" d="M118.297,-309.935C111.63,-301.879 101.143,-289.208 92.4023,-278.646"/>
<polygon fill="red" stroke="red" points="94.9449,-276.229 85.8728,-270.756 89.5521,-280.692 94.9449,-276.229"/>
</g>
<!-- 3 -->
<g id="node6" class="node"><title>3</title>
<ellipse fill="white" stroke="black" cx="124.971" cy="-259" rx="14.2796" ry="14.7"/>
<text text-anchor="middle" x="124.971" y="-256.8" font-family="Times New Roman,serif" font-size="9.00">3</text>
</g>
<!-- B&#45;&gt;3 -->
<g id="edge3" class="edge"><title>B&#45;&gt;3</title>
<path fill="none" stroke="red" stroke-width="0.261961" d="M124.971,-309.935C124.971,-303.313 124.971,-293.572 124.971,-284.448"/>
<polygon fill="red" stroke="red" points="128.471,-284.244 124.971,-274.244 121.471,-284.244 128.471,-284.244"/>
</g>
<!-- A XOR B&#45;&gt;2 -->
<g id="edge12" class="edge"><title>A XOR B&#45;&gt;2</title>
<path fill="none" stroke="red" stroke-width="0.148046" stroke-dasharray="1,5" d="M104.014,-136.206C112.389,-115.571 118.947,-88.6552 109.971,-66 104.361,-51.8419 92.6352,-39.3565 82.2997,-30.4033"/>
<polygon fill="red" stroke="red" points="84.4173,-27.6141 74.4522,-24.0158 79.9984,-33.043 84.4173,-27.6141"/>
</g>
<!-- 4 -->
<g id="node7" class="node"><title>4</title>
<ellipse fill="white" stroke="black" cx="38.9709" cy="-81" rx="14.2796" ry="14.7"/>
<text text-anchor="middle" x="38.9709" y="-78.8" font-family="Times New Roman,serif" font-size="9.00">4</text>
</g>
<!-- A XOR B&#45;&gt;4 -->
<g id="edge8" class="edge"><title>A XOR B&#45;&gt;4</title>
<path fill="none" stroke="green" stroke-width="0.39246" d="M69.0974,-136.604C62.9569,-125.475 56.243,-113.306 50.7148,-103.286"/>
<polygon fill="green" stroke="green" points="53.7307,-101.507 45.8353,-94.4419 47.6016,-104.888 53.7307,-101.507"/>
</g>
<!-- 5 -->
<g id="node8" class="node"><title>5</title>
<ellipse fill="white" stroke="black" cx="86.9709" cy="-81" rx="14.2796" ry="14.7"/>
<text text-anchor="middle" x="86.9709" y="-78.8" font-family="Times New Roman,serif" font-size="9.00">5</text>
</g>
<!-- A XOR B&#45;&gt;5 -->
<g id="edge7" class="edge"><title>A XOR B&#45;&gt;5</title>
<path fill="none" stroke="green" stroke-width="0.135084" d="M86.9709,-132.356C86.9709,-123.545 86.9709,-114.348 86.9709,-106.262"/>
<polygon fill="green" stroke="green" points="90.471,-106.064 86.9709,-96.0642 83.471,-106.064 90.471,-106.064"/>
</g>
<!-- 1&#45;&gt;A XOR B -->
<g id="edge10" class="edge"><title>1&#45;&gt;A XOR B</title>
<path fill="none" stroke="red" stroke-width="1.96924" d="M78.5775,-244.022C79.4217,-236.678 80.5101,-227.209 81.6216,-217.538"/>
<polygon fill="red" stroke="red" points="85.1142,-217.803 82.7791,-207.468 78.16,-217.003 85.1142,-217.803"/>
</g>
<!-- 3&#45;&gt;A XOR B -->
<g id="edge6" class="edge"><title>3&#45;&gt;A XOR B</title>
<path fill="none" stroke="green" stroke-width="1.81849" d="M119.364,-245.163C115.719,-236.817 110.735,-225.408 105.77,-214.041"/>
<polygon fill="green" stroke="green" points="108.844,-212.333 101.634,-204.57 102.429,-215.135 108.844,-212.333"/>
</g>
<!-- 4&#45;&gt;2 -->
<g id="edge9" class="edge"><title>4&#45;&gt;2</title>
<path fill="none" stroke="red" stroke-width="0.590816" d="M43.9437,-66.7392C46.9686,-58.6728 50.9133,-48.1536 54.4261,-38.7861"/>
<polygon fill="red" stroke="red" points="57.7703,-39.8361 58.0044,-29.2439 51.216,-37.3782 57.7703,-39.8361"/>
</g>
<!-- 5&#45;&gt;2 -->
<g id="edge11" class="edge"><title>5&#45;&gt;2</title>
<path fill="none" stroke="green" stroke-width="0.512797" d="M81.9981,-66.7392C78.9732,-58.6728 75.0285,-48.1536 71.5157,-38.7861"/>
<polygon fill="green" stroke="green" points="74.7258,-37.3782 67.9373,-29.2439 68.1715,-39.8361 74.7258,-37.3782"/>
</g>
</g>
</svg>
